<?xml version="1.0" standalone="no"?>
<!DOCTYPE svg PUBLIC "-//W3C//DTD SVG 20010904//EN"
 "http://www.w3.org/TR/2001/REC-SVG-20010904/DTD/svg10.dtd">
<svg version="1.0" xmlns="http://www.w3.org/2000/svg"
 width="512.000000pt" height="512.000000pt" viewBox="0 0 512.000000 512.000000"
 preserveAspectRatio="xMidYMid meet">
<metadata>
Created by potrace 1.14, written by Peter Selinger 2001-2017
</metadata>
<g transform="translate(0.000000,512.000000) scale(0.100000,-0.100000)"
fill="#000000" stroke="none">
<path d="M1630 4941 l-25 -20 -3 -545 c-3 -608 -4 -599 61 -611 17 -3 272 -5
565 -3 l533 3 20 25 c17 22 19 36 14 115 -5 88 -10 132 -21 167 -3 10 -7 29
-10 43 -8 42 -34 115 -70 194 l-34 74 42 47 43 48 308 1 307 1 0 80 0 80 -335
0 -335 0 -62 -60 -62 -59 -30 37 c-49 62 -147 151 -221 201 -177 121 -363 185
-570 197 -79 4 -93 2 -115 -15z"/>
<path d="M3520 4560 l0 -80 320 0 320 0 0 80 0 80 -320 0 -320 0 0 -80z"/>
<path d="M1130 4549 c-154 -19 -351 -93 -468 -176 -22 -15 -50 -35 -63 -43
-47 -31 -196 -188 -241 -255 -97 -144 -160 -304 -187 -470 -8 -53 -7 -267 2
-330 19 -138 82 -313 149 -412 15 -23 28 -46 28 -52 0 -6 4 -11 8 -11 4 0 16
-14 27 -32 30 -52 184 -199 260 -250 210 -139 416 -200 660 -194 138 4 234 21
350 63 137 50 299 147 376 227 19 20 20 19 55 -15 l35 -34 620 -3 619 -2 0 80
0 80 -582 0 c-684 0 -641 -7 -571 98 117 174 180 359 189 558 3 79 1 95 -15
115 l-19 24 -501 3 -501 3 0 485 c0 409 -2 489 -15 514 -22 42 -64 47 -215 29z"/>
<path d="M3520 4240 l0 -80 320 0 320 0 0 80 0 80 -320 0 -320 0 0 -80z"/>
<path d="M4320 4240 l0 -80 320 0 320 0 0 80 0 80 -320 0 -320 0 0 -80z"/>
<path d="M3520 3920 l0 -80 320 0 320 0 0 80 0 80 -320 0 -320 0 0 -80z"/>
<path d="M4320 3920 l0 -80 320 0 320 0 0 80 0 80 -320 0 -320 0 0 -80z"/>
<path d="M3520 3280 l0 -80 320 0 320 0 0 80 0 80 -320 0 -320 0 0 -80z"/>
<path d="M4320 3280 l0 -80 320 0 320 0 0 80 0 80 -320 0 -320 0 0 -80z"/>
<path d="M3520 2960 l0 -80 320 0 320 0 0 80 0 80 -320 0 -320 0 0 -80z"/>
<path d="M4320 2960 l0 -80 320 0 320 0 0 80 0 80 -320 0 -320 0 0 -80z"/>
<path d="M3520 2640 l0 -80 320 0 320 0 0 80 0 80 -320 0 -320 0 0 -80z"/>
<path d="M4320 2640 l0 -80 320 0 320 0 0 80 0 80 -320 0 -320 0 0 -80z"/>
<path d="M160 1238 c0 -552 3 -1013 6 -1026 15 -54 -32 -52 1229 -52 l1165 0
0 80 0 80 -1120 0 -1120 0 0 960 0 960 -80 0 -80 0 0 -1002z"/>
<path d="M1790 2221 l-25 -20 0 -840 c0 -793 1 -841 18 -858 16 -16 41 -18
210 -21 178 -2 194 -1 217 17 l25 20 0 840 c0 793 -1 841 -18 858 -16 16 -41
18 -210 21 -178 2 -194 1 -217 -17z"/>
<path d="M2720 1235 c0 -1088 -2 -1054 52 -1069 13 -3 510 -6 1106 -6 l1082 0
0 924 c0 581 -4 934 -10 951 -11 30 -54 49 -90 40 -15 -4 -188 -169 -438 -418
-227 -227 -415 -414 -418 -417 -2 -2 -85 76 -183 174 -155 155 -183 178 -215
183 -38 5 -38 4 -287 -244 -138 -136 -257 -260 -265 -275 -11 -22 -14 -93 -14
-393 l0 -365 -80 0 -80 0 0 960 0 960 -80 0 -80 0 0 -1005z"/>
<path d="M1162 1913 c-7 -3 -19 -18 -27 -33 -13 -25 -15 -124 -15 -677 0 -356
3 -658 6 -671 12 -44 49 -52 234 -52 178 0 219 8 234 45 8 21 8 1313 0 1343
-12 44 -48 52 -241 51 -98 0 -184 -3 -191 -6z"/>
<path d="M530 1433 c-8 -3 -23 -15 -32 -27 -16 -19 -18 -58 -18 -439 0 -466 1
-471 63 -482 18 -4 110 -5 205 -3 171 3 173 3 193 28 18 24 19 43 16 457 -2
400 -3 434 -20 450 -16 16 -40 18 -205 20 -103 1 -194 -1 -202 -4z"/>
</g>
</svg>
